<?xml version="1.0" encoding="utf-8"?>
<svg width="115" height="39" version="1.1" id="Layer_1" xmlns="http://www.w3.org/2000/svg" xmlns:xlink="http://www.w3.org/1999/xlink" x="0px" y="0px"
	 viewBox="0 0 115 39" style="enable-background:new 0 0 115 39;" xml:space="preserve">
<style type="text/css">
	.st0{fill:#FFFFFF;}
</style>
<g>
	<g>
		<g>
			<path class="st0" d="M-0.1,0.5h3.8c1.7,0,2.7,1,2.7,2.6c0,1.6-0.9,2.6-2.7,2.6H1.1v3.6h-1.2V0.5z M1.1,4.7h2.3
				c1.3,0,1.9-0.6,1.9-1.6c0-1-0.6-1.6-1.9-1.6H1.1V4.7z"/>
			<path class="st0" d="M11.7,0.3c2.8,0,4.2,2.2,4.2,4.6c0,2.4-1.4,4.6-4.2,4.6S7.5,7.2,7.5,4.8C7.5,2.5,8.9,0.3,11.7,0.3z
				 M11.7,8.4c2.1,0,3-1.8,3-3.6c0-1.8-0.9-3.6-3-3.6c-2.1,0-3,1.8-3,3.6C8.7,6.6,9.6,8.4,11.7,8.4z"/>
			<path class="st0" d="M25.3,9.2h-1.2l-2-7.3h0l-2,7.3h-1.2l-2.2-8.7h1.2l1.7,7.2h0l2-7.2h1.3l1.9,7.2h0l1.8-7.2h1.2L25.3,9.2z"/>
			<path class="st0" d="M29.1,0.5h6v1h-4.9v2.8h4.5v1h-4.5v3h4.9v1h-6V0.5z"/>
			<path class="st0" d="M36.9,0.5H41c1.6,0,2.6,0.9,2.6,2.3c0,1-0.5,1.9-1.5,2.2v0c1,0.2,1.2,0.9,1.3,1.8c0.1,0.9,0,1.8,0.5,2.4
				h-1.3c-0.3-0.4-0.1-1.3-0.3-2.1c-0.1-0.9-0.3-1.6-1.5-1.6h-2.8v3.7h-1.2V0.5z M40.5,4.5c1.1,0,2-0.3,2-1.5c0-0.9-0.5-1.5-1.5-1.5
				h-2.9v3H40.5z"/>
			<path class="st0" d="M45.7,0.5h6v1h-4.9v2.8h4.5v1h-4.5v3h4.9v1h-6V0.5z"/>
			<path class="st0" d="M53.5,0.5h3c2.7,0,4.2,1.3,4.2,4.1c0,2.9-1.3,4.6-4.2,4.6h-3V0.5z M54.6,8.2h1.9c0.8,0,2.9-0.2,2.9-3.4
				c0-2.1-0.8-3.3-2.9-3.3h-1.9V8.2z"/>
			<path class="st0" d="M66.1,0.5h3.2c0.8,0,1.8,0,2.3,0.3c0.6,0.3,1,1,1,1.8c0,0.9-0.5,1.6-1.3,1.9v0c1.1,0.2,1.7,1,1.7,2.1
				c0,1.3-0.9,2.5-2.6,2.5h-4.2V0.5z M67.2,4.2h2.3c1.3,0,1.9-0.5,1.9-1.4c0-1.2-0.9-1.4-1.9-1.4h-2.3V4.2z M67.2,8.2h2.9
				c1,0,1.6-0.6,1.6-1.6c0-1.1-0.9-1.5-1.9-1.5h-2.6V8.2z"/>
			<path class="st0" d="M78.3,5.6v3.6h-1.2V5.6l-3.4-5.1h1.4l2.6,4.1l2.5-4.1h1.3L78.3,5.6z"/>
		</g>
	</g>
	<g>
		<g>
			<path class="st0" d="M9.8,17.4c1,0,1.9,0.1,2.7,0.3c0.8,0.2,1.5,0.5,2.1,0.9c0.6,0.4,1,0.9,1.4,1.6c0.3,0.7,0.5,1.5,0.5,2.5
				c0,1.1-0.2,1.9-0.7,2.6c-0.5,0.7-1.2,1.3-2.1,1.7c1.3,0.4,2.2,1,2.9,1.9c0.6,0.9,0.9,2,0.9,3.4c0,1.1-0.2,2-0.6,2.7
				c-0.4,0.8-1,1.4-1.7,1.9c-0.7,0.5-1.5,0.8-2.4,1.1c-0.9,0.2-1.8,0.4-2.7,0.4H0V17.4H9.8z M9.2,25.8c0.8,0,1.5-0.2,2-0.6
				c0.5-0.4,0.8-1,0.8-1.9c0-0.5-0.1-0.9-0.3-1.2c-0.2-0.3-0.4-0.6-0.7-0.7c-0.3-0.2-0.6-0.3-1-0.4c-0.4-0.1-0.8-0.1-1.2-0.1H4.5
				v4.9H9.2z M9.5,34.7c0.5,0,0.9,0,1.3-0.1c0.4-0.1,0.8-0.2,1.1-0.4c0.3-0.2,0.6-0.5,0.7-0.8c0.2-0.4,0.3-0.8,0.3-1.4
				c0-1.1-0.3-1.8-0.9-2.3c-0.6-0.5-1.4-0.7-2.4-0.7h-5v5.8H9.5z"/>
			<path class="st0" d="M24,34.6c0.6,0.6,1.5,0.9,2.7,0.9c0.8,0,1.6-0.2,2.2-0.6c0.6-0.4,1-0.9,1.1-1.3h3.7
				c-0.6,1.8-1.5,3.1-2.7,3.9c-1.2,0.8-2.7,1.2-4.4,1.2c-1.2,0-2.3-0.2-3.2-0.6c-1-0.4-1.8-0.9-2.4-1.6c-0.7-0.7-1.2-1.5-1.5-2.5
				c-0.4-1-0.5-2.1-0.5-3.2c0-1.1,0.2-2.2,0.6-3.2c0.4-1,0.9-1.8,1.6-2.5c0.7-0.7,1.5-1.3,2.5-1.7c0.9-0.4,2-0.6,3.2-0.6
				c1.3,0,2.4,0.2,3.4,0.7c1,0.5,1.7,1.2,2.4,2c0.6,0.8,1.1,1.8,1.3,2.9c0.3,1.1,0.4,2.2,0.3,3.4H23C23,32.9,23.4,34,24,34.6z
				 M28.8,26.7c-0.5-0.5-1.3-0.8-2.3-0.8c-0.7,0-1.2,0.1-1.7,0.3c-0.4,0.2-0.8,0.5-1.1,0.8c-0.3,0.3-0.5,0.7-0.6,1.1
				c-0.1,0.4-0.2,0.7-0.2,1h6.8C29.6,28,29.3,27.3,28.8,26.7z"/>
			<path class="st0" d="M39.8,17.4v7.9h0.1c0.5-0.9,1.2-1.5,2-1.9c0.8-0.4,1.6-0.6,2.4-0.6c1.1,0,2,0.1,2.7,0.4
				c0.7,0.3,1.3,0.7,1.7,1.3c0.4,0.5,0.7,1.2,0.9,2c0.2,0.8,0.2,1.6,0.2,2.6v9.3h-4.2v-8.5c0-1.2-0.2-2.2-0.6-2.8
				C44.7,26.3,44,26,43,26c-1.1,0-1.9,0.3-2.4,1c-0.5,0.7-0.8,1.8-0.8,3.3v7.9h-4.2V17.4H39.8z"/>
			<path class="st0" d="M52.8,25.4c0.4-0.6,1-1.2,1.6-1.6c0.7-0.4,1.4-0.7,2.2-0.8c0.8-0.2,1.7-0.3,2.5-0.3c0.8,0,1.5,0.1,2.3,0.2
				c0.8,0.1,1.5,0.3,2.1,0.6c0.6,0.3,1.2,0.7,1.6,1.3c0.4,0.5,0.6,1.3,0.6,2.2v7.9c0,0.7,0,1.3,0.1,2c0.1,0.6,0.3,1.1,0.5,1.4
				l-4.2,0c-0.1-0.2-0.2-0.5-0.3-0.7c0-0.2-0.1-0.5-0.1-0.7c-0.7,0.7-1.4,1.2-2.3,1.4c-0.9,0.3-1.8,0.4-2.7,0.4
				c-0.7,0-1.4-0.1-2-0.3c-0.6-0.2-1.2-0.4-1.6-0.8c-0.5-0.4-0.8-0.8-1.1-1.4c-0.3-0.6-0.4-1.2-0.4-2c0-0.9,0.2-1.6,0.5-2.1
				c0.3-0.6,0.7-1,1.2-1.3c0.5-0.3,1-0.6,1.6-0.7c0.6-0.2,1.2-0.3,1.8-0.4c0.6-0.1,1.2-0.2,1.8-0.2c0.6-0.1,1.1-0.1,1.6-0.3
				c0.5-0.1,0.8-0.3,1.1-0.5c0.3-0.2,0.4-0.5,0.4-1c0-0.4-0.1-0.8-0.2-1.1c-0.1-0.3-0.3-0.5-0.6-0.6c-0.2-0.1-0.5-0.2-0.8-0.3
				c-0.3,0-0.7-0.1-1-0.1c-0.8,0-1.5,0.2-1.9,0.5c-0.5,0.4-0.7,0.9-0.8,1.8H52C52.1,26.8,52.3,26,52.8,25.4z M60.9,31.2
				c-0.3,0.1-0.5,0.2-0.8,0.2c-0.3,0.1-0.6,0.1-1,0.1c-0.3,0-0.7,0.1-1,0.1c-0.3,0.1-0.6,0.1-0.9,0.2c-0.3,0.1-0.6,0.2-0.8,0.4
				c-0.2,0.2-0.4,0.4-0.5,0.6c-0.1,0.3-0.2,0.6-0.2,1c0,0.4,0.1,0.7,0.2,0.9c0.1,0.3,0.3,0.5,0.6,0.6c0.2,0.1,0.5,0.2,0.8,0.3
				c0.3,0.1,0.6,0.1,1,0.1c0.8,0,1.4-0.1,1.9-0.4c0.4-0.3,0.8-0.6,1-1c0.2-0.4,0.3-0.8,0.4-1.2c0.1-0.4,0.1-0.7,0.1-0.9v-1.6
				C61.4,31,61.2,31.2,60.9,31.2z"/>
			<path class="st0" d="M72,23.2v2.1h0.1c0.5-0.9,1.2-1.5,2-1.9c0.8-0.4,1.7-0.6,2.6-0.6c1.1,0,2,0.1,2.7,0.4
				c0.7,0.3,1.3,0.7,1.7,1.3c0.4,0.5,0.7,1.2,0.9,2c0.2,0.8,0.3,1.6,0.3,2.6v9.3h-4.2v-8.5c0-1.2-0.2-2.2-0.6-2.8
				c-0.4-0.6-1.1-1-2.1-1c-1.1,0-2,0.4-2.5,1.1c-0.5,0.7-0.8,1.8-0.8,3.3v7.9h-4.1V23.2H72z"/>
			<path class="st0" d="M91.5,25.9c-0.7,0-1.2,0.1-1.7,0.5c-0.5,0.3-0.8,0.7-1.1,1.2c-0.3,0.5-0.5,1-0.6,1.6
				c-0.1,0.6-0.2,1.1-0.2,1.7c0,0.5,0.1,1.1,0.2,1.7c0.1,0.6,0.3,1.1,0.6,1.5c0.3,0.5,0.6,0.8,1.1,1.1c0.4,0.3,1,0.4,1.6,0.4
				c1,0,1.8-0.3,2.3-0.8c0.5-0.6,0.9-1.3,1-2.2h4c-0.3,2-1.1,3.5-2.3,4.6c-1.3,1-2.9,1.6-4.9,1.6c-1.1,0-2.2-0.2-3.1-0.6
				c-0.9-0.4-1.8-0.9-2.4-1.6c-0.7-0.7-1.2-1.5-1.6-2.4c-0.4-0.9-0.6-2-0.6-3.1c0-1.2,0.2-2.3,0.5-3.3c0.3-1,0.8-1.9,1.5-2.6
				c0.7-0.7,1.5-1.3,2.4-1.7c1-0.4,2-0.6,3.3-0.6c0.9,0,1.8,0.1,2.6,0.3c0.8,0.2,1.6,0.6,2.2,1.1c0.7,0.5,1.2,1.1,1.6,1.8
				c0.4,0.7,0.6,1.6,0.7,2.5h-4.1C94.3,26.7,93.3,25.9,91.5,25.9z"/>
			<rect x="22.1" y="18.8" class="st0" width="8.5" height="2.1"/>
			<path class="st0" d="M105,34.6c0.6,0.6,1.6,0.9,2.7,0.9c0.8,0,1.6-0.2,2.2-0.6c0.6-0.4,1-0.9,1.1-1.3h3.7
				c-0.6,1.8-1.5,3.1-2.7,3.9c-1.2,0.8-2.7,1.2-4.4,1.2c-1.2,0-2.3-0.2-3.2-0.6c-1-0.4-1.8-0.9-2.4-1.6c-0.7-0.7-1.2-1.5-1.5-2.5
				c-0.4-1-0.5-2.1-0.5-3.2c0-1.1,0.2-2.2,0.6-3.2c0.4-1,0.9-1.8,1.6-2.5c0.7-0.7,1.5-1.3,2.4-1.7c0.9-0.4,2-0.6,3.2-0.6
				c1.3,0,2.4,0.2,3.4,0.7c1,0.5,1.7,1.2,2.4,2c0.6,0.8,1.1,1.8,1.3,2.9c0.3,1.1,0.4,2.2,0.3,3.4h-11C103.9,32.9,104.3,34,105,34.6z
				 M109.8,26.7c-0.5-0.5-1.3-0.8-2.4-0.8c-0.7,0-1.2,0.1-1.7,0.3c-0.4,0.2-0.8,0.5-1.1,0.8c-0.3,0.3-0.5,0.7-0.6,1.1
				c-0.1,0.4-0.2,0.7-0.2,1h6.8C110.6,28,110.3,27.3,109.8,26.7z"/>
		</g>
	</g>
</g>
</svg>
